<?xml version="1.0" encoding="UTF-8"?>
<svg width="315px" height="307px" viewBox="0 0 315 307" version="1.1" xmlns="http://www.w3.org/2000/svg" xmlns:xlink="http://www.w3.org/1999/xlink">
    <!-- Generator: sketchtool 51.3 (57544) - http://www.bohemiancoding.com/sketch -->
    <title>3CF75AE0-4646-46A1-B3C0-FC0E576974AF</title>
    <desc>Created with sketchtool.</desc>
    <defs>
        <linearGradient x1="100%" y1="83.2193177%" x2="-73.1522841%" y2="-88.4279747%" id="linearGradient-1">
            <stop stop-color="#FEF5F5" offset="0%"></stop>
            <stop stop-color="#EF413D" offset="100%"></stop>
        </linearGradient>
        <linearGradient x1="50%" y1="100%" x2="30.6990453%" y2="-6.77776417%" id="linearGradient-2">
            <stop stop-color="#FFAFAC" offset="0%"></stop>
            <stop stop-color="#FF7774" offset="100%"></stop>
        </linearGradient>
        <polygon id="path-3" points="0.178213221 0.845042935 39.4265244 0.845042935 39.4265244 17.142132 0.178213221 17.142132"></polygon>
        <polygon id="path-5" points="0.878476271 0.882592177 40.8096535 0.882592177 40.8096535 19.2676669 0.878476271 19.2676669"></polygon>
    </defs>
    <g id="DTA---Desktop" stroke="none" stroke-width="1" fill="none" fill-rule="evenodd">
        <g id="DTA---Asset" transform="translate(-565.000000, -698.000000)">
            <g id="IlluParcours" transform="translate(565.000000, 698.000000)">
                <path d="M264.804969,183.542067 C254.76924,221.165106 276.529107,258.883546 240.397946,281.582041 C210.410606,300.420835 202.985135,286.529375 161.384675,285.816598 C126.043565,285.211067 84.5418004,306.048763 59.3393026,263.165256 C46.3414582,241.048672 47.2443861,230.079143 35.1757065,207.489878 C21.915612,182.67061 -1.97121879,172.552969 0.129939316,141.893793 C1.63816222,119.886467 34.7701479,98.3860316 54.1115241,93.4932369 C88.0662337,84.9037021 124.774869,94.9377314 158.908247,84.890823 C196.47325,73.8338411 211.291725,50.6066953 251.368339,65.7540935 C269.354553,72.5521814 276.817376,84.1167908 278.056311,101.88541 C278.802732,112.590467 274.457799,147.354486 264.804969,183.542067 Z" id="Path-2" fill="url(#linearGradient-1)" fill-rule="nonzero"></path>
                <path d="M34.1543494,167.005786 C18.3305647,132.787162 11.1427791,100.654452 53.6922261,82.1775227 C86.3587956,67.9921942 147.9092,83.8086531 189.105025,87.0052041 C224.102382,89.720791 266.916545,71.4784419 288.493192,115.635265 C299.621053,138.408544 299.665534,148.59695 308.020921,172.452104 C326.792325,226.045633 305.710561,280.863831 268.49552,288.380403 C234.228893,295.301463 210.207722,279.032787 175.559672,286.983791 C137.428254,295.734157 120.88396,317.94856 82.3487657,300.487198 C65.0543342,292.650613 52.5880302,271.88035 48.7439524,254.695553 C43.5158496,231.323527 49.9991313,201.269816 34.1543494,167.005786 Z" id="Path" fill-opacity="0.7" fill="url(#linearGradient-2)" fill-rule="nonzero"></path>
                <polygon id="Fill-1" fill="#FF7774" fill-rule="evenodd" points="84.0176733 251.040289 132.314035 251.040289 132.314035 170.411492 84.0176733 170.411492"></polygon>
                <polygon id="Fill-2" fill="#FFBAB8" fill-rule="evenodd" points="132.123787 251.040289 180.420149 251.040289 180.420149 170.411492 132.123787 170.411492"></polygon>
                <path d="M136.469072,94.1738863 L142.280978,122.01115 L124.118577,124.340922 C124.118577,124.340922 122.546696,95.4143533 124.118577,95.2631909 C125.692017,95.1135868 136.469072,94.1738863 136.469072,94.1738863" id="Fill-3" fill="#FF7774" fill-rule="evenodd"></path>
                <path d="M119.45876,66.218965 C119.45876,66.218965 137.605567,68.7809345 140.870963,96.3750919 C140.870963,96.3750919 135.091804,102.596127 127.712696,100.673092 L119.45876,66.218965 Z" id="Fill-5" fill="#EF413D" fill-rule="evenodd"></path>
                <path d="M111.591713,65.2571355 C111.591713,65.2571355 93.9111683,63.5055213 87.6813416,75.9569426 C81.4515149,88.408364 99.6217129,101.380283 93.3918861,129.914141 L132.589114,127.838384 L132.589114,102.676851 C132.589114,102.676851 139.735871,92.2684604 129.612208,81.1136076 C129.612208,81.1136076 129.010277,64.1538056 111.591713,65.2571355" id="Fill-7" fill="#EF413D" fill-rule="evenodd"></path>
                <path d="M169.909597,133.955009 C169.909597,133.955009 182.621874,129.250273 186.032295,141.57079 C189.441156,153.888191 203.60524,234.373618 203.60524,234.373618 L192.251205,234.373618 L185.57071,202.378608 C185.57071,202.378608 176.14722,191.895415 173.26076,169.615318 L133.651849,164.896557 L169.909597,133.955009 Z" id="Fill-9" fill="#FF7774" fill-rule="evenodd"></path>
                <path d="M143.926463,163.408931 C143.926463,163.408931 150.663097,163.22816 162.626859,159.414815 C174.590621,155.603028 183.119012,159.639221 178.404928,173.095794 C173.693963,186.55081 149.906785,248.885835 149.906785,248.885835 L140.901215,246.19452 L148.676413,205.837266 C148.676413,205.837266 150.508715,185.815256 158.959136,174.072896 C158.959136,174.072896 141.174111,174.958053 135.106463,174.026145 C129.035696,173.095794 143.926463,163.408931 143.926463,163.408931" id="Fill-11" fill="#FF7774" fill-rule="evenodd"></path>
                <path d="M93.3920421,129.914608 C93.3920421,129.914608 79.0080817,147.982415 96.3128094,165.713613 C96.3128094,165.713613 105.221696,176.069019 144.464146,174.452984 C144.464146,174.452984 154.751547,139.735491 176.654963,130.397705 L131.341745,124.341857 L93.3920421,129.914608 Z" id="Fill-13" fill="#000000" fill-rule="evenodd"></path>
                <path d="M112.552619,19.1419954 C112.552619,19.1419954 117.226158,0.107995431 101.020812,0.000467512691 C89.0274208,-0.0790096447 85.4626188,14.2409041 100.166257,23.8264726 L112.552619,19.1419954 Z" id="Fill-15" fill="#A11F22" fill-rule="evenodd"></path>
                <path d="M99.6341881,27.2961959 C99.6341881,27.2961959 96.702505,19.8144345 105.059361,16.0260234 C113.414658,12.2360538 116.076564,21.2013888 116.076564,21.2013888 L99.6341881,27.2961959 Z" id="Fill-17" fill="#FD6C75" fill-rule="evenodd"></path>
                <path d="M131.385876,44.3225406 C131.385876,44.3225406 143.449441,37.1867386 130.408129,22.8543579 C122.258673,13.8999315 107.966718,14.3954949 100.016866,23.2766777 C92.0654554,32.1578604 99.5568416,47.8226523 99.5568416,47.8226523 L104.974218,38.8277081 L109.708574,31.849302 L116.49199,29.1392868 L121.811124,29.5055051 L126.313129,30.0821041 L129.946545,31.6030787 L131.385876,44.3225406 Z" id="Fill-19" fill="#A11F22" fill-rule="evenodd"></path>
                <polygon id="Fill-21" fill="#FF7774" fill-rule="evenodd" points="118.788683 71.4298614 105.221851 69.6891558 107.969525 48.3253843 121.534797 50.0660898"></polygon>
                <path d="M106.538926,54.6910371 C106.538926,54.6910371 108.009446,62.4704482 114.254866,64.033499 C116.199446,64.5197122 118.324916,63.9618137 119.511624,62.3504533 C119.834421,61.9141081 120.077688,61.4107528 120.149421,60.8497376 C120.437911,58.6041183 114.513728,54.6848036 114.513728,54.6848036 L106.538926,54.6910371 Z" id="Fill-23" fill="#EF413D" fill-rule="evenodd"></path>
                <path d="M116.099332,60.2259198 L115.405396,60.1370924 C107.620842,59.1381736 102.119257,52.0210721 103.118837,44.2401025 L103.914134,38.0642599 C104.912153,30.2848487 112.03552,24.7884579 119.820074,25.7873766 L120.51401,25.8762041 C128.300124,26.8766812 133.801708,33.9922244 132.800569,41.7731939 L132.006832,47.9490365 C131.007252,55.7284477 123.883886,61.226397 116.099332,60.2259198" id="Fill-25" fill="#FF7774" fill-rule="evenodd"></path>
                <path d="M104.635359,42.698869 C104.635359,42.698869 114.395681,39.516666 114.153973,28.5690772 C114.153973,28.5690772 114.773057,20.3969553 106.227512,27.9566355 C97.6850866,35.5163157 104.635359,42.698869 104.635359,42.698869" id="Fill-27" fill="#A11F22" fill-rule="evenodd"></path>
                <path d="M106.788587,45.6831584 C106.451755,48.3043462 104.053389,50.1541381 101.430468,49.8175289 C98.8091064,49.4824782 96.9565322,47.0841381 97.2933639,44.466067 C97.6301955,41.8448792 100.028562,39.9935289 102.651483,40.3301381 C105.271285,40.6667472 107.125418,43.0635289 106.788587,45.6831584" id="Fill-29" fill="#FF7774" fill-rule="evenodd"></path>
                <path d="M109.919562,37.2171269 L109.476691,40.6673706 C108.483349,45.5435279 106.428052,44.0677462 105.663943,41.959264 L109.919562,37.2171269 Z" id="Fill-31" fill="#A11F22" fill-rule="evenodd"></path>
                <path d="M134.286839,35.4426046 C134.286839,35.4426046 124.322235,42.9056655 109.707483,31.8489904 C99.6321609,24.2269751 114.867557,21.4873508 114.867557,21.4873508 L129.072186,24.417097 L134.286839,35.4426046 Z" id="Fill-33" fill="#A11F22" fill-rule="evenodd"></path>
                <path d="M105.22154,69.6888442 C105.22154,69.6888442 113.754609,84.9001487 119.806663,80.2187883 C126.337455,75.1665345 111.591713,65.2568239 111.591713,65.2568239 L105.22154,69.6888442 Z" id="Fill-35" fill="#FF7774" fill-rule="evenodd"></path>
                <path d="M109.004347,100.673715 C109.004347,100.673715 114.276698,110.379279 117.883604,118.004411 L156.313604,115.786842 C156.313604,115.786842 163.943777,109.547106 169.910064,114.815974 L164.01395,121.886324 L115.907837,132.528472 C114.072416,132.933649 112.155906,132.411593 110.791426,131.124375 C106.531129,127.106883 97.2776139,117.731695 92.7724901,108.185086 L109.004347,100.673715 Z" id="Fill-37" fill="#FF7774" fill-rule="evenodd"></path>
                <path d="M215.64401,85.6910244 L168.42052,85.6910244 C166.867351,85.6910244 165.524703,86.7756538 165.201906,88.2935117 L156.313292,129.983177 C155.876658,132.027765 157.437624,133.955476 159.531906,133.955476 L207.539777,133.955476 C209.114777,133.955476 210.468342,132.839679 210.769307,131.295329 L218.87354,89.6072223 C219.268069,87.5766589 217.713342,85.6910244 215.64401,85.6910244" id="Fill-39" fill="#FFBAB8" fill-rule="evenodd"></path>
                <path d="M218.36377,85.6910244 L171.13872,85.6910244 C169.587111,85.6910244 168.244463,86.7756538 167.921666,88.2935117 L159.031493,129.983177 C158.596418,132.027765 160.157384,133.955476 162.250106,133.955476 L210.259537,133.955476 C211.834537,133.955476 213.188101,132.839679 213.487507,131.295329 L221.59174,89.6072223 C221.98627,87.5766589 220.431542,85.6910244 218.36377,85.6910244" id="Fill-41" fill="#A11F22" fill-rule="evenodd"></path>
                <path d="M157.583584,130.396925 L125.316356,130.396925 C124.333931,130.396925 123.535515,131.194814 123.535515,132.17659 C123.535515,133.158367 124.333931,133.954697 125.316356,133.954697 L158.207347,133.954697 L157.583584,130.396925 Z" id="Fill-43" fill="#FFBAB8" fill-rule="evenodd"></path>
                <path d="M189.123349,108.734881 C189.123349,111.574241 191.428151,113.875962 194.269389,113.875962 C197.110626,113.875962 199.413869,111.574241 199.413869,108.734881 C199.413869,105.89552 197.110626,103.592241 194.269389,103.592241 C191.428151,103.592241 189.123349,105.89552 189.123349,108.734881" id="Fill-45" fill="#FFFFFF" fill-rule="evenodd"></path>
                <path d="M92.7721782,69.9124711 C92.1390594,70.1914203 70.967005,80.5889025 91.7944307,112.795852 C91.7944307,112.795852 105.093045,113.020258 112.802748,103.110547 C112.802748,103.110547 110.242203,62.2437046 92.7721782,69.9124711" id="Fill-47" fill="#EF413D" fill-rule="evenodd"></path>
                <g id="Group-51" stroke-width="1" fill-rule="evenodd" transform="translate(137.227723, 240.415284)">
                    <mask id="mask-4" fill="white">
                        <use xlink:href="#path-3"></use>
                    </mask>
                    <g id="Clip-50"></g>
                    <path d="M1.21805198,4.01702487 C1.50498267,3.17394365 2.41567574,2.86226853 3.0347599,3.41237513 C4.24953713,4.49388782 6.42958663,5.80448173 9.65131931,5.48189797 C12.9993639,5.14840558 14.2578045,3.17550203 14.7334233,1.76361371 C14.9829282,1.02026853 15.7018144,0.640024873 16.3349332,0.957933503 L36.6352797,11.1559437 C37.8687698,11.7761772 38.8309233,12.9340503 39.3096609,14.372431 C39.7587698,15.725101 38.8558738,17.1759487 37.5849579,17.1416645 L2.50768069,16.1739132 C1.12604703,16.1349538 0.068769802,14.7822838 0.187284653,13.2083244 L0.770502475,5.4865731 C0.779858911,5.35878629 0.804809406,5.23255787 0.846913366,5.11256294 L1.21805198,4.01702487 Z" id="Fill-49" fill="#A11F22" mask="url(#mask-4)"></path>
                </g>
                <g id="Group-54" stroke-width="1" fill-rule="evenodd" transform="translate(188.688119, 223.273152)">
                    <mask id="mask-6" fill="white">
                        <use xlink:href="#path-5"></use>
                    </mask>
                    <g id="Clip-53"></g>
                    <path d="M0.953108911,7.81260457 C1.00768812,6.92588883 1.80610396,6.38513249 2.54838119,6.75446751 C4.00486634,7.47911218 6.45001485,8.17414772 9.47682178,7.01939137 C12.6174653,5.82100051 13.319198,3.5894066 13.4065248,2.10115787 C13.4533069,1.3188533 14.0458812,0.764071574 14.7413762,0.904325381 L37.0050149,5.43452335 C38.3570198,5.70879746 39.5889505,6.57369594 40.4279109,7.83753858 C41.2169703,9.02346244 40.7257574,10.6628736 39.4907079,10.9620817 L5.38338119,19.2074472 C4.04073267,19.5331477 2.66533663,18.5030614 2.36593069,16.954036 L0.906326733,9.34916294 C0.881376238,9.22293452 0.873579208,9.09514772 0.881376238,8.96736091 L0.953108911,7.81260457 Z" id="Fill-52" fill="#A11F22" mask="url(#mask-6)"></path>
                </g>
                <path d="M111.256752,104.892238 L112.802124,103.109456 C112.802124,103.109456 113.642644,96.1045579 110.512916,88.027497" id="Stroke-55" stroke="#A11F22" stroke-width="0.785" stroke-linecap="round" stroke-linejoin="round"></path>
            </g>
        </g>
    </g>
</svg>